PathFileType	4	(X/Y/Z)	C:/Users/beibeiliu/ov580/test_trc\sequence.40_training_dense_right.trc
DataRate	CameraRate	NumFrames	NumMarkers	Units	OrigDataRate	OrigDataStartFrame	OrigNumFrames
120	120	16	19	mm	120	101	400
Frame#	Time	ThumbCMC			ThumbMCP			ThumbIP			ThumbTip			IndexMCP			IndexPIP			IndexTip			MiddleMCP			MiddlePIP			MiddleTip			RingMCP			RingPIP			RingTip			PinkyMCP			PinkyPIP			PinkyTip			BackHand1			BackHand2			BackHand3	
		X0	Y0	Z0	X1	Y1	Z1	X2	Y2	Z2	X3	Y3	Z3	X4	Y4	Z4	X5	Y5	Z5	X6	Y6	Z6	X7	Y7	Z7	X8	Y8	Z8	X9	Y9	Z9	X10	Y10	Z10	X11	Y11	Z11	X12	Y12	Z12	X13	Y13	Z13	X14	Y14	Z14	X15	Y15	Z15	X16	Y16	Z16	X17	Y17	Z17	X18	Y18	Z18	
100	0.833333	223.318	13.7118	59.1991	214.184	4.64095	28.7932	217.242	-3.28109	6.78218	230.669	-13.7317	-11.5558	261.925	29.6703	8.06171	258.726	25.0614	-19.3335	250.747	10.6069	-35.2913	273.159	13.5271	4.18462	263.972	-1.22584	-20.2705	242.278	-19.2082	-22.9729	286.261	0.326565	14.5839	282.208	-6.18205	-12.8048	263.652	-19.9118	-28.5821	291.642	-15.6691	30.5717	297.417	-15.999	9.00529	293.602	-23.7697	-13.4736	273.683	3.39428	60.2111	268.963	-2.66922	84.4814	256.673	21.8605	68.4387	
101	0.841667	222.935	15.136	55.8102	218.571	3.188	28.1476	219.466	-2.62026	2.69788	225.439	-13.3723	-12.5286	259.617	32.7455	5.66588	258.109	26.3847	-17.9492	249.262	8.23775	-37.4221	273.871	13.6824	2.38777	264.181	1.63709	-19.316	239.579	-21.1504	-22.2005	284.717	3.25537	12.7908	281.599	-6.24769	-12.1384	264.336	-18.0641	-27.3078	289.798	-14.0915	30.6364	297.01	-16.5941	7.01145	294.153	-21.4472	-14.3752	274.138	1.01826	62.9724	265.122	-1.56032	85.1595	257.548	20.2663	68.1412	
102	0.85	225.33	13.0451	57.9524	215.912	3.86697	28.5987	218.975	-3.20877	2.81555	226.769	-14.623	-9.84133	261.512	30.7097	8.65073	261.013	24.7538	-16.8863	250.726	8.73943	-36.4608	274.733	13.7803	4.93723	264.819	-1.49541	-20.5965	241.099	-24.9552	-20.6407	285.906	0.088712	15.2376	282.392	-5.92479	-11.2081	265.973	-18.1651	-26.7571	292.878	-13.9847	28.1677	298.026	-17.4686	8.08943	294.87	-23.0224	-12.4455	276.592	4.0498	58.9202	267.27	-1.9371	87.0401	257.972	19.6314	68.8504	
103	0.858333	221.949	14.6204	58.6372	216.727	3.71334	29.3092	220.932	-3.40761	6.50182	230.462	-15.1659	-14.2267	263.758	29.0769	6.03946	258.549	24.4202	-20.2446	246.804	9.50487	-38.0317	275.802	11.7607	5.14273	263.054	0.298193	-20.5365	241.451	-19.5442	-22.0851	286.135	1.74872	12.2093	283.33	-6.90841	-10.3838	267.389	-19.5466	-25.8055	294.802	-15.6125	28.0969	298.737	-15.9737	9.03959	295.976	-21.1437	-12.7806	277.986	2.25262	60.4893	266.883	0.0811184	86.0037	254.754	23.2074	68.7825	
104	0.866667	225.173	11.5138	60.0883	214.774	4.84669	26.6634	222.303	-3.49667	5.56693	229.82	-14.6658	-10.52	260.069	32.8538	7.88522	257.903	25.692	-20.6695	249.764	7.07018	-36.0391	273.256	16.4858	2.11789	265.94	-0.300846	-20.2058	244.445	-22.0672	-21.7216	287.46	0.834844	12.9743	281.723	-4.96614	-13.2	267.373	-22.0445	-26.0577	293.471	-14.6064	30.4996	299.314	-17.485	8.27085	293.182	-20.7271	-16.7108	276.332	2.87075	63.6492	266.708	-2.19664	86.7311	256.428	18.3764	69.2996	
105	0.875	225	13.2169	58.1891	215.232	3.51456	26.8269	220.54	-4.30208	2.54383	231.886	-16.0925	-13.1282	261.212	31.5605	5.48864	258.431	24.5548	-18.8126	249.294	8.27079	-35.018	274.354	14.639	3.18302	267.712	1.34861	-19.186	244.034	-21.3993	-21.5816	286.452	3.07048	10.422	281.078	-4.60438	-13.5831	268.271	-17.3554	-26.0508	293.713	-13.9166	29.4063	297.869	-15.8226	4.673	293.161	-21.2094	-14.2216	276.882	3.4631	60.1955	266.252	1.07436	85.2565	254.942	21.6814	65.9481	
106	0.883333	221.523	14.8852	57.5582	214.624	3.99488	27.2313	221.879	-4.15344	2.98269	230.254	-15.9706	-10.6166	263.356	28.3983	5.98955	261.876	22.1475	-16.7959	249.95	4.3513	-35.845	276.416	12.1198	2.7466	267.078	-2.08882	-20.8295	242.302	-24.511	-20.8057	287.013	3.08676	11.7819	283.236	-5.05026	-10.9993	267.931	-16.6233	-25.0357	293.777	-15.9489	31.3873	299.497	-19.8725	5.43519	295.557	-25.0573	-11.8433	280.784	2.03849	61.553	269.193	-1.87616	86.7507	257.21	22.2388	65.8892	
107	0.891667	222.033	13.633	57.9152	219.68	1.82944	27.7384	224.18	-4.749	3.08231	231.09	-16.2618	-14.0035	262.206	31.1039	6.42679	258.047	24.0361	-20.8191	246.849	2.93131	-36.8574	275.46	14.3834	0.986637	265.658	-0.0270142	-20.5284	247.849	-23.8161	-21.5271	286.431	2.57897	12.6081	284.646	-9.34455	-13.4508	267.537	-18.2102	-25.1974	295.717	-15.1704	28.5518	300.599	-16.6786	9.33413	294.275	-20.8358	-14.2715	279.523	1.31129	61.1529	268.584	1.62999	83.3711	256.183	21.6929	67.6309	
108	0.9	225.213	12.5586	58.7852	218.764	3.83227	24.6973	220.519	-3.46007	1.94896	233.171	-15.1943	-13.6118	263.266	30.8232	7.89409	259.992	22.1994	-21.5787	246.897	4.55273	-36.8532	274.719	15.817	6.54578	269.977	-1.52219	-19.7894	245.996	-21.1431	-22.2565	288.453	2.08225	10.4279	286.033	-8.94211	-12.7666	268.171	-22.4054	-27.031	296.852	-14.0489	26.5758	300.228	-15.5045	9.24127	297.354	-22.7803	-14.2296	278.996	0.326889	61.8487	267.576	3.08646	83.7053	257.822	23.1159	68.1112	
109	0.908333	223.859	14.9738	57.7964	219.131	4.75008	28.335	224.05	-2.83766	1.50064	234.848	-14.2392	-13.7585	261.811	32.5171	9.33381	260.707	25.3541	-17.2799	248.684	5.35991	-37.3366	277.876	13.1463	2.45152	266.529	2.56838	-20.2128	248.227	-21.7967	-22.7991	290.275	-0.145239	12.7656	287.805	-7.67065	-10.1865	269.838	-19.9332	-25.4736	295.497	-11.8019	28.6772	301.535	-17.1373	7.07223	295.739	-21.2823	-13.417	278.045	2.06926	61.5549	270.164	0.569595	85.04	256.591	20.1828	68.6389	
110	0.916667	225.709	17.1664	54.858	219.118	5.17485	25.9429	220.448	-0.487957	2.99297	232.801	-12.6549	-17.2419	266.054	30.0955	9.92591	262.151	23.0289	-19.3712	248.855	9.30227	-36.5066	276.265	17.6476	5.76096	267.208	-0.746961	-21.2397	246.088	-21.1433	-22.9806	289.191	1.1994	15.315	283.984	-4.50488	-13.9569	270.134	-15.752	-24.6974	296.511	-12.9638	29.4162	300.289	-14.3131	8.17027	298.958	-23.1468	-13.8528	278.689	1.0662	62.7708	266.947	-0.687536	86.1994	259.116	23.4718	67.485	
111	0.925	228.227	15.4691	56.3595	220.148	5.50516	28.1343	220.642	0.691477	4.85266	231.842	-11.2724	-14.1387	266.36	32.1681	8.53432	262.487	25.5172	-19.4661	248.368	10.626	-35.9147	278.842	16.4831	5.70329	269.364	5.80234	-20.2107	244.784	-18.943	-24.0618	290.685	1.28707	14.4422	285.034	-3.25136	-11.5527	268.946	-16.8256	-27.273	293.505	-12.0608	30.7712	300.74	-15.1594	8.37768	298.621	-21.3419	-11.5214	278.148	6.40204	59.4138	270.721	-0.601153	85.0608	257.543	23.7557	71.1506	
112	0.933333	227.861	17.7427	56.2655	223.493	7.1945	26.3966	223.019	1.08219	4.83597	232.812	-11.2966	-15.3698	264.055	34.5451	8.55187	263.473	25.4051	-19.7864	252.375	12.2824	-33.9983	277.24	19.5336	1.41713	273.09	6.24188	-20.3471	247.758	-13.5244	-28.2405	289.979	5.96437	12.3166	286.37	-2.24636	-13.5251	270.536	-16.4337	-28.9754	295.77	-12.8157	29.8452	303.055	-17.0635	6.87886	296.222	-20.9717	-13.7296	282.073	6.13544	59.9542	270.82	2.18229	84.1769	258.296	23.5321	67.6043	
113	0.941667	225.697	19.8425	57.4539	217.246	9.27497	26.9533	223.647	2.68606	1.06107	230.775	-10.0663	-14.6069	267.676	33.6952	8.2451	263.131	29.8247	-17.5763	252.716	8.935	-37.1448	281.74	16.4607	5.37071	273.393	3.68925	-23.0949	254.915	-11.0994	-31.1477	290.039	5.76995	12.2146	290.917	-4.42836	-12.6263	272.948	-14.1857	-30.8158	297.663	-12.6361	26.5197	300.559	-13.681	4.28008	297.32	-21.1081	-13.0905	280.564	5.91227	58.29	267.462	1.60748	85.1275	257.67	23.7614	68.9804	
114	0.95	228.286	19.8755	54.7554	220.541	9.67731	27.7587	225.043	2.08523	6.18633	234.869	-9.94664	-14.8366	267.752	34.0145	6.56477	264.971	26.4412	-19.8622	254.442	9.78335	-36.9565	284.756	16.7616	3.32617	276.111	9.77536	-21.1783	256.881	-8.41348	-33.8248	291.25	6.09661	12.0067	290.461	-3.69141	-14.8618	278.94	-13.2057	-28.9088	297.621	-14.7046	28.3814	300.45	-16.8856	3.98499	295.729	-22.6257	-13.2331	280.792	3.3691	63.0061	270.405	4.79738	81.9073	257.821	24.2433	68.6856	
115	0.958333	226.909	19.7873	57.9723	219.124	10.5921	26.1601	223.019	3.10465	3.97556	235.267	-10.9749	-12.1407	270.921	32.2163	8.53957	266.231	27.1608	-20.4362	251.119	12.4843	-39.0684	284.027	19.3218	4.3784	278.256	6.52351	-24.6119	255.909	-8.17655	-37.8434	292.391	1.01624	15.7631	290.638	-1.52286	-12.0964	278.891	-13.6255	-29.7587	295.135	-13.4629	25.722	296.811	-16.0534	3.2261	292.037	-19.7323	-14.8253	279.634	2.83138	62.3539	268.663	1.8693	83.6106	263.68	23.8989	68.026	
